<svg xmlns="http://www.w3.org/2000/svg" fill="none" viewBox="0 4 24 15.01">
<path d="M23.9985 8.20975C23.9985 9.46079 23.9985 10.6493 23.9985 11.8378C23.9985 13.5705 23.9985 15.2969 23.9985 17.0296C23.9985 18.2306 23.0688 19.0062 21.6294 19.0062C15.2119 19.0062 8.78689 19.0062 2.36939 19.0062C0.929953 19.0062 0.0078125 18.2306 0.0078125 17.0233C0.0078125 14.196 0.0078125 11.3749 0.0078125 8.54753C0.0078125 8.4537 0.0078125 8.35987 0.0078125 8.20975C0.157754 8.29107 0.27021 8.34736 0.375169 8.40991C3.51645 10.1551 6.65023 11.9003 9.7915 13.6455C11.3059 14.4837 12.7079 14.4837 14.2223 13.6455C17.3636 11.9003 20.4973 10.1551 23.6386 8.40991C23.7361 8.34736 23.841 8.29107 23.9985 8.20975Z" fill="black"/>
<path d="M12.0027 4C15.2264 4 18.4502 4 21.6739 4C23.0459 4 24.0505 4.83194 23.998 5.92035C23.968 6.56464 23.5782 7.03378 22.9409 7.38407C20.4744 8.74771 18.0154 10.1239 15.5488 11.4937C14.8141 11.9066 14.0719 12.3132 13.3372 12.726C12.4525 13.2202 11.5679 13.2202 10.6757 12.726C7.45947 10.937 4.25072 9.1543 1.03448 7.3653C0.164814 6.8774 -0.180052 6.12052 0.0898431 5.33236C0.367235 4.5442 1.21441 4.00626 2.2565 4.00626C4.88048 4 7.50446 4.00626 10.1284 4.00626C10.7507 4 11.373 4 12.0027 4Z" fill="black"/>
</svg>