<svg width="24" height="25" viewBox="0 0 24 25" fill="none" xmlns="http://www.w3.org/2000/svg">
<path d="M17.4633 22.4998C16.7413 22.4834 16.0115 22.3217 15.2989 22.0802C13.7664 21.5607 12.3811 20.7606 11.0718 19.8269C8.87995 18.2659 6.96061 16.4157 5.30751 14.2952C4.10078 12.7475 3.06789 11.0958 2.42889 9.22532C2.14855 8.40338 1.95904 7.56191 2.00759 6.68215C2.04909 5.92506 2.30281 5.26876 2.86585 4.73356C3.42341 4.20383 3.96687 3.65926 4.50093 3.10531C5.32944 2.24509 6.609 2.35135 7.37564 3.10687C8.26758 3.98507 9.15246 4.87029 10.0342 5.75786C10.8392 6.56808 10.8549 7.77286 10.0577 8.50417C9.87603 8.67059 9.64032 8.79482 9.40853 8.88779C8.73743 9.15969 8.29263 9.61441 8.14228 10.3324C8.05144 10.7676 8.18927 11.1716 8.3404 11.5669C8.74682 12.6279 9.43359 13.5007 10.2331 14.2882C11.0186 15.0617 11.8893 15.718 12.9262 16.129C13.7547 16.4579 14.5189 16.372 15.1611 15.7305C15.3521 15.5399 15.5002 15.2789 15.5918 15.0234C16.024 13.8202 17.6035 13.4092 18.5761 14.3023C19.2527 14.9234 19.887 15.5899 20.5385 16.2384C20.8713 16.5696 21.2088 16.8962 21.5268 17.2408C22.219 17.9901 22.1211 19.1948 21.4171 19.9199C20.8181 20.5371 20.2018 21.138 19.5918 21.7443C19.0131 22.3224 18.284 22.4896 17.4633 22.4998Z" fill="#FCFCFC"/>
</svg>
