<svg width="24" height="25" viewBox="0 0 24 25" fill="none" xmlns="http://www.w3.org/2000/svg">
<path d="M0 24.5L1.687 18.337C0.645999 16.533 0.0989998 14.488 0.0999998 12.391C0.103 5.835 5.43799 0.5 11.993 0.5C15.174 0.501 18.16 1.74 20.406 3.988C22.651 6.236 23.8869 9.224 23.886 12.402C23.8829 18.959 18.548 24.294 11.993 24.294C10.003 24.293 8.04198 23.794 6.30499 22.846L0 24.5ZM6.59699 20.693C8.27298 21.688 9.87298 22.284 11.989 22.285C17.437 22.285 21.875 17.851 21.878 12.4C21.88 6.938 17.463 2.51 11.997 2.508C6.54499 2.508 2.11 6.942 2.108 12.392C2.107 14.617 2.75899 16.283 3.85399 18.026L2.85499 21.674L6.59699 20.693ZM17.984 15.229C17.91 15.105 17.712 15.031 17.414 14.882C17.117 14.733 15.656 14.014 15.383 13.915C15.111 13.816 14.913 13.766 14.714 14.064C14.516 14.361 13.946 15.031 13.773 15.229C13.6 15.427 13.426 15.452 13.129 15.303C12.832 15.154 11.874 14.841 10.739 13.828C9.85598 13.04 9.25898 12.067 9.08598 11.769C8.91298 11.472 9.06798 11.311 9.21598 11.163C9.34998 11.03 9.51298 10.816 9.66198 10.642C9.81298 10.47 9.86198 10.346 9.96198 10.147C10.061 9.949 10.012 9.775 9.93698 9.626C9.86198 9.478 9.26798 8.015 9.02098 7.42C8.77898 6.841 8.53398 6.919 8.35198 6.91L7.78198 6.9C7.58398 6.9 7.26198 6.974 6.98998 7.272C6.71799 7.57 5.94999 8.288 5.94999 9.751C5.94999 11.214 7.01498 12.627 7.16298 12.825C7.31198 13.023 9.25798 16.025 12.239 17.312C12.948 17.618 13.502 17.801 13.933 17.938C14.645 18.164 15.293 18.132 15.805 18.056C16.376 17.971 17.563 17.337 17.811 16.643C18.059 15.948 18.059 15.353 17.984 15.229Z" fill="#25D366"/>
</svg>
